<svg width="37" height="38" viewBox="0 0 37 38" fill="none" xmlns="http://www.w3.org/2000/svg">
<circle cx="18.6727" cy="18.9269" r="18.33" fill="white"/>
<path d="M10.1187 18.3165C10.1187 17.7682 10.5632 17.3236 11.1115 17.3236H16.6506C18.6918 17.3236 19.7141 14.8557 18.2707 13.4124L17.3418 12.4835C16.9462 12.0879 16.9519 11.4448 17.3544 11.0562C17.747 10.6773 18.3709 10.6828 18.7567 11.0686L22.0332 14.3451C24.2266 16.5384 24.2266 20.0946 22.0332 22.2879L18.7582 25.5629C18.3735 25.9476 17.7498 25.9476 17.3651 25.5629C16.9817 25.1795 16.9803 24.5582 17.362 24.173L18.2878 23.2389C19.7305 21.7831 18.6993 19.3094 16.6497 19.3094H11.1115C10.5632 19.3094 10.1187 18.8649 10.1187 18.3165Z" fill="#232323"/>
</svg>
