<svg width="54" height="54" viewBox="0 0 54 54" fill="none" xmlns="http://www.w3.org/2000/svg">
<path d="M27.001 5.06201C14.9048 5.06201 5.06348 14.9033 5.06348 26.9995C5.06348 39.0957 14.9048 48.937 27.001 48.937C39.0972 48.937 48.9385 39.0957 48.9385 26.9995C48.9385 14.9033 39.0972 5.06201 27.001 5.06201ZM30.376 37.1245H23.626C23.1784 37.1245 22.7492 36.9467 22.4327 36.6303C22.1163 36.3138 21.9385 35.8846 21.9385 35.437C21.9385 34.9895 22.1163 34.5602 22.4327 34.2438C22.7492 33.9273 23.1784 33.7495 23.626 33.7495H30.376C30.8235 33.7495 31.2528 33.9273 31.5692 34.2438C31.8857 34.5602 32.0635 34.9895 32.0635 35.437C32.0635 35.8846 31.8857 36.3138 31.5692 36.6303C31.2528 36.9467 30.8235 37.1245 30.376 37.1245ZM35.4385 30.3745H18.5635C18.1159 30.3745 17.6867 30.1967 17.3702 29.8803C17.0538 29.5638 16.876 29.1346 16.876 28.687C16.876 28.2395 17.0538 27.8102 17.3702 27.4938C17.6867 27.1773 18.1159 26.9995 18.5635 26.9995H35.4385C35.886 26.9995 36.3153 27.1773 36.6317 27.4938C36.9482 27.8102 37.126 28.2395 37.126 28.687C37.126 29.1346 36.9482 29.5638 36.6317 29.8803C36.3153 30.1967 35.886 30.3745 35.4385 30.3745ZM38.8135 23.6245H15.1885C14.7409 23.6245 14.3117 23.4467 13.9952 23.1303C13.6788 22.8138 13.501 22.3846 13.501 21.937C13.501 21.4895 13.6788 21.0602 13.9952 20.7438C14.3117 20.4273 14.7409 20.2495 15.1885 20.2495H38.8135C39.261 20.2495 39.6903 20.4273 40.0067 20.7438C40.3232 21.0602 40.501 21.4895 40.501 21.937C40.501 22.3846 40.3232 22.8138 40.0067 23.1303C39.6903 23.4467 39.261 23.6245 38.8135 23.6245Z" fill="#99CB36"/>
</svg>
