<svg width="23" height="23" viewBox="0 0 23 23" fill="none" xmlns="http://www.w3.org/2000/svg">
<path d="M21.5139 12.2065L13.0532 3.74576C12.9271 3.61864 12.7769 3.51784 12.6115 3.44925C12.4461 3.38066 12.2687 3.34563 12.0896 3.3462H4.19286C4.0121 3.3462 3.83874 3.41801 3.71092 3.54582C3.58311 3.67364 3.5113 3.847 3.5113 4.02776V11.9245C3.51073 12.1036 3.54576 12.281 3.61435 12.4464C3.68294 12.6118 3.78374 12.762 3.91086 12.8881L12.3716 21.3488C12.4982 21.4754 12.6485 21.5759 12.8139 21.6444C12.9793 21.7129 13.1566 21.7482 13.3356 21.7482C13.5146 21.7482 13.6919 21.7129 13.8573 21.6444C14.0227 21.5759 14.173 21.4754 14.2996 21.3488L21.5139 14.1345C21.6405 14.0079 21.741 13.8576 21.8095 13.6922C21.878 13.5268 21.9133 13.3495 21.9133 13.1705C21.9133 12.9915 21.878 12.8142 21.8095 12.6488C21.741 12.4834 21.6405 12.3331 21.5139 12.2065ZM13.3352 20.3853L4.87442 11.9245V4.70932H12.0896L20.5504 13.1701L13.3352 20.3853ZM8.9638 7.77635C8.9638 7.97856 8.90384 8.17621 8.7915 8.34434C8.67917 8.51246 8.5195 8.6435 8.33269 8.72088C8.14588 8.79826 7.94032 8.8185 7.74201 8.77905C7.54369 8.73961 7.36153 8.64224 7.21855 8.49926C7.07557 8.35628 6.9782 8.17412 6.93876 7.9758C6.89931 7.77749 6.91955 7.57193 6.99693 7.38512C7.07431 7.19831 7.20535 7.03864 7.37347 6.92631C7.54159 6.81397 7.73925 6.75401 7.94145 6.75401C8.2126 6.75401 8.47263 6.86172 8.66436 7.05345C8.85609 7.24518 8.9638 7.50521 8.9638 7.77635Z" fill="#99CB36"/>
</svg>
