<svg width="29" height="20" viewBox="0 0 29 20" fill="none" xmlns="http://www.w3.org/2000/svg">
<path d="M6.60262 7.79506C7.79585 7.79506 8.96227 8.14889 9.9544 8.81181C10.9465 9.47473 11.7198 10.417 12.1764 11.5194C12.6331 12.6218 12.7525 13.8348 12.5197 15.0051C12.287 16.1754 11.7124 17.2504 10.8686 18.0941C10.0249 18.9379 8.94991 19.5124 7.77961 19.7452C6.60931 19.978 5.39627 19.8585 4.29387 19.4019C3.19148 18.9453 2.24924 18.172 1.58632 17.1799C0.923404 16.1878 0.569572 15.0213 0.569572 13.8281L0.541992 12.9662C0.541992 9.76612 1.81324 6.69706 4.07607 4.43422C6.3389 2.17139 9.40796 0.900146 12.6081 0.900146V4.3476C11.4758 4.34456 10.3541 4.56602 9.3079 4.99917C8.2617 5.43232 7.31176 6.06858 6.51299 6.87114C6.20253 7.18101 5.91614 7.51408 5.65629 7.86746C5.96484 7.81919 6.28028 7.79334 6.6009 7.79334L6.60262 7.79506ZM22.1162 7.79506C23.3094 7.79506 24.4758 8.14889 25.468 8.81181C26.4601 9.47473 27.2334 10.417 27.69 11.5194C28.1466 12.6218 28.2661 13.8348 28.0333 15.0051C27.8005 16.1754 27.2259 17.2504 26.3822 18.0941C25.5384 18.9379 24.4635 19.5124 23.2932 19.7452C22.1229 19.978 20.9098 19.8585 19.8074 19.4019C18.705 18.9453 17.7628 18.172 17.0999 17.1799C16.437 16.1878 16.0831 15.0213 16.0831 13.8281L16.0555 12.9662C16.0555 9.76612 17.3268 6.69706 19.5896 4.43422C21.8525 2.17139 24.9215 0.900146 28.1216 0.900146V4.3476C26.9893 4.34456 25.8676 4.56602 24.8215 4.99917C23.7753 5.43232 22.8253 6.06858 22.0265 6.87114C21.7161 7.18101 21.4297 7.51408 21.1698 7.86746C21.4784 7.81919 21.7938 7.79334 22.1162 7.79334V7.79506Z" fill="#FF0099"/>
</svg>
